<svg xmlns="http://www.w3.org/2000/svg" width="64" height="64" viewBox="0 0 22.691 23.853" fill="none">
  <defs>
    <linearGradient id="aiqlGrad" x1="11.345" y1="0" x2="11.345" y2="23.853" gradientUnits="userSpaceOnUse">
      <stop offset="0%" stop-color="#1FE9F0"></stop>
      <stop offset="35%" stop-color="#3DB6FF"></stop>
      <stop offset="70%" stop-color="#A669FF"></stop>
      <stop offset="100%" stop-color="#FF33D8"></stop>
    </linearGradient>
  </defs>
  <path d="M 3.154 4.508 C 1.076 6.585 0 9.105 0 12.276 C 0 15.446 0.981 18.061 3.059 20.139 C 5.136 22.216 7.751 23.853 10.922 23.853 C 14.092 23.853 17.134 22.643 19.211 20.565 C 21.289 18.488 22.691 15.446 22.691 12.276 C 22.691 9.105 20.558 6.794 18.481 4.717 C 16.403 2.639 14.092 0 10.922 0 C 7.751 0 5.231 2.43 3.154 4.508 Z M 4.016 13.388 C 4.016 9.795 6.928 6.883 10.521 6.883 C 14.113 6.883 17.027 9.795 17.027 13.388 C 17.027 16.98 14.113 19.894 10.521 19.894 C 6.928 19.894 4.016 16.98 4.016 13.388 Z" fill="url(#aiqlGrad)" fill-rule="evenodd"></path>
</svg>